<svg width="30" height="18" viewBox="0 0 30 18" fill="none" xmlns="http://www.w3.org/2000/svg">
<path d="M11.5843 12.5203H28.6444C28.8163 12.5092 28.9888 12.5144 29.1599 12.5359C29.5899 12.6164 29.8394 12.9237 29.8477 13.3786C29.8569 13.8044 29.6497 14.1352 29.2362 14.2269C29.017 14.2681 28.7946 14.2853 28.5722 14.2783C23.1062 14.2783 17.6415 14.2753 12.1782 14.2693C11.7482 14.2693 11.5317 14.352 11.3801 14.8549C10.845 16.6219 9.2654 17.7886 7.55383 17.7719C6.723 17.7659 5.91459 17.4792 5.24114 16.9517C4.5677 16.4243 4.06275 15.6824 3.79661 14.8292C3.6636 14.3911 3.49862 14.2447 3.08309 14.2704C2.39846 14.3084 1.70868 14.285 1.02095 14.2771C0.37241 14.2693 -0.0101074 13.9195 0.000203259 13.3741C0.0146382 12.8455 0.389953 12.5259 1.01066 12.5236C1.76746 12.5236 2.52427 12.5393 3.27901 12.5069C3.3671 12.4927 3.45087 12.4563 3.52359 12.4006C3.59631 12.3449 3.65593 12.2714 3.69763 12.1861C4.38845 10.1666 5.81957 9.00768 7.63632 9.02891C9.45306 9.05015 10.8533 10.2348 11.4997 12.28C11.5214 12.3493 11.5472 12.4152 11.5843 12.5203ZM5.30815 13.3976C5.30666 13.7233 5.3646 14.0461 5.47862 14.3475C5.59265 14.6489 5.7605 14.9228 5.97256 15.1536C6.18462 15.3844 6.43668 15.5675 6.71424 15.6923C6.99181 15.8171 7.28942 15.8812 7.58993 15.8809C8.19702 15.8797 8.77891 15.6176 9.208 15.1521C9.63708 14.6866 9.87835 14.0556 9.8789 13.3976C9.87944 13.0719 9.82061 12.7493 9.70578 12.4484C9.59096 12.1474 9.42239 11.874 9.20978 11.6439C8.99718 11.4137 8.74473 11.2314 8.46691 11.1074C8.1891 10.9833 7.89142 10.92 7.59096 10.921C7.29047 10.9189 6.99259 10.9816 6.71462 11.1053C6.43666 11.2291 6.18414 11.4115 5.97175 11.6419C5.75937 11.8723 5.59133 12.1462 5.47741 12.4476C5.36349 12.749 5.30596 13.0719 5.30815 13.3976Z" fill="#5F5F5F"/>
<path d="M26.9319 5.32757C26.8794 5.4885 26.8288 5.62597 26.7876 5.76455C26.2154 7.622 24.711 8.82006 22.9469 8.82229C22.0889 8.83154 21.2512 8.5402 20.5584 7.99164C19.8656 7.44308 19.3548 6.66665 19.102 5.77796C18.9865 5.38792 18.8154 5.32086 18.4834 5.32086C12.7094 5.33055 6.93537 5.33278 1.16137 5.32757C1.02388 5.3332 0.886214 5.33097 0.748942 5.32086C0.326203 5.27281 -0.0130199 4.90735 0.000383996 4.47596C0.014819 4.0211 0.223085 3.69364 0.660259 3.60982C0.915263 3.57437 1.17251 3.56129 1.42946 3.5707C7.08248 3.5707 12.7362 3.57294 18.3906 3.57741C18.8082 3.57741 19.0092 3.47236 19.1494 3.00185C19.6784 1.23828 21.2477 0.0670378 22.9644 0.0759786C23.8051 0.0809158 24.6231 0.372081 25.3029 0.908334C25.9826 1.44459 26.4898 2.19881 26.7526 3.06443C26.8814 3.49694 27.0619 3.60311 27.4413 3.57964C27.9372 3.54723 28.4373 3.55953 28.9353 3.57964C29.5004 3.59753 29.8705 3.97081 29.8571 4.48043C29.8437 4.99005 29.4715 5.32757 28.8982 5.33315C28.2465 5.33204 27.5949 5.32757 26.9319 5.32757ZM22.9469 1.97478C22.3397 1.9759 21.7574 2.23599 21.3258 2.69881C20.8942 3.16163 20.6479 3.78999 20.6403 4.44802C20.6412 5.10659 20.8823 5.73807 21.3112 6.20459C21.7401 6.67111 22.3218 6.93478 22.9293 6.93803C23.5366 6.9404 24.12 6.68158 24.5514 6.21833C24.9829 5.75509 25.2271 5.12525 25.2307 4.46702C25.231 3.80842 24.9911 3.1764 24.5633 2.70872C24.1354 2.24104 23.5545 1.97561 22.9469 1.9703V1.97478Z" fill="#5F5F5F"/>
</svg>
